<svg width="175" height="69" viewBox="0 0 175 69" fill="none" xmlns="http://www.w3.org/2000/svg">
<g clip-path="url(#clip0_2_251)">
<path d="M0 46.84V4.13999C0 3.19999 0.76 2.42999 1.71 2.42999H9.63C10.57 2.42999 11.34 3.18999 11.34 4.13999V46.84C11.34 47.78 10.57 48.55 9.63 48.55H1.71C0.77 48.55 0 47.79 0 46.84Z" fill="white"/>
<path d="M16.53 46.84V4.13999C16.53 3.19999 17.29 2.42999 18.24 2.42999H46.17C47.11 2.42999 47.88 3.18999 47.88 4.13999V10.83C47.88 11.77 47.12 12.54 46.17 12.54H29.57C28.63 12.54 27.86 13.3 27.86 14.25V18.54C27.86 19.48 28.62 20.25 29.57 20.25H43.25C44.19 20.25 44.96 21.01 44.96 21.96V28.65C44.96 29.59 44.2 30.36 43.25 30.36H29.57C28.63 30.36 27.86 31.12 27.86 32.07V36.75C27.86 37.69 28.62 38.46 29.57 38.46H46.17C47.11 38.46 47.88 39.23 47.88 40.17V46.86C47.88 47.8 47.12 48.57 46.17 48.57H18.24C17.3 48.57 16.53 47.81 16.53 46.86" fill="white"/>
<path d="M123.93 46.84V31.99C123.93 31.05 123.16 30.28 122.22 30.28H113.59C112.65 30.28 111.88 31.04 111.88 31.99V46.84C111.88 47.78 111.11 48.55 110.17 48.55H102.25C101.31 48.55 100.54 47.79 100.54 46.84V4.13999C100.54 3.19999 101.31 2.42999 102.25 2.42999H110.17C111.11 2.42999 111.88 3.18999 111.88 4.13999V18.47C111.88 19.41 112.65 20.18 113.59 20.18H122.22C123.16 20.18 123.93 19.41 123.93 18.47V4.13999C123.93 3.19999 124.69 2.42999 125.64 2.42999H133.56C134.5 2.42999 135.27 3.18999 135.27 4.13999V46.84C135.27 47.78 134.5 48.55 133.56 48.55H125.64C124.7 48.55 123.93 47.79 123.93 46.84Z" fill="white"/>
<path d="M159.11 32.09H153.89C152.95 32.09 152.18 32.85 152.18 33.8V46.83C152.18 47.77 151.42 48.54 150.47 48.54H142.55C141.61 48.54 140.84 47.77 140.84 46.83V4.13999C140.84 3.19999 141.61 2.42999 142.55 2.42999H159.11C169.34 2.42999 174.85 9.67999 174.85 17.26C174.85 24.84 169.34 32.09 159.11 32.09ZM158.59 12.59H153.89C152.95 12.59 152.18 13.36 152.18 14.3V20.21C152.18 21.15 152.94 21.92 153.89 21.92H158.59C161.7 21.92 163.51 19.65 163.51 17.26C163.51 14.87 161.7 12.6 158.59 12.6" fill="white"/>
<path d="M2.2 54.58H0.580002V65.17H2.2V54.58Z" fill="white"/>
<path d="M10.76 65.17H9.24V60.58C9.24 60.2 9.17 59.89 9.04 59.64C8.91 59.39 8.73 59.2 8.5 59.09C8.27 58.97 8.01 58.91 7.72 58.91C7.27 58.91 6.89 59.05 6.6 59.33C6.31 59.61 6.16 60.03 6.16 60.58V65.17H4.64V57.63H6.13V58.39C6.38 58.11 6.68 57.9 7.04 57.75C7.39 57.6 7.76 57.53 8.14 57.53C8.91 57.53 9.53 57.76 10 58.22C10.51 58.71 10.76 59.42 10.76 60.34V65.16V65.17Z" fill="white"/>
<path d="M15.89 65.17H14.95C14.27 65.17 13.75 64.97 13.41 64.58C13.06 64.18 12.89 63.69 12.89 63.09V54.58H14.41V63C14.41 63.3 14.47 63.52 14.59 63.66C14.71 63.8 14.92 63.87 15.22 63.87H15.89V65.16V65.17Z" fill="white"/>
<path d="M22.97 65.17H21.48V64.49C21.2 64.77 20.92 64.96 20.62 65.08C20.32 65.2 19.94 65.26 19.48 65.26C19.02 65.26 18.63 65.2 18.3 65.09C17.97 64.98 17.68 64.81 17.46 64.58C17.06 64.17 16.86 63.63 16.86 62.96C16.86 62.53 16.96 62.15 17.16 61.82C17.36 61.49 17.65 61.24 18.04 61.06C18.43 60.88 18.9 60.79 19.46 60.79H21.46V60.25C21.46 59.77 21.33 59.41 21.07 59.19C20.81 58.96 20.39 58.85 19.81 58.85C19.39 58.85 19.06 58.9 18.83 59.01C18.59 59.12 18.37 59.3 18.16 59.58L17.17 58.64C17.51 58.23 17.89 57.95 18.3 57.79C18.71 57.63 19.24 57.55 19.88 57.55C21.95 57.55 22.99 58.41 22.99 60.14V65.18L22.97 65.17ZM21.45 62.45V61.84H19.68C19.24 61.84 18.9 61.94 18.67 62.12C18.44 62.31 18.32 62.58 18.32 62.93C18.32 63.64 18.78 64 19.7 64C20.02 64 20.3 63.97 20.51 63.92C20.73 63.86 20.93 63.75 21.11 63.57C21.33 63.35 21.44 62.98 21.44 62.45" fill="white"/>
<path d="M31.27 65.17H29.75V60.58C29.75 60.2 29.68 59.89 29.55 59.64C29.42 59.39 29.24 59.2 29.01 59.09C28.78 58.97 28.52 58.91 28.23 58.91C27.78 58.91 27.4 59.05 27.11 59.33C26.82 59.61 26.67 60.03 26.67 60.58V65.17H25.15V57.63H26.64V58.39C26.89 58.11 27.19 57.9 27.55 57.75C27.9 57.6 28.27 57.53 28.65 57.53C29.42 57.53 30.04 57.76 30.51 58.22C31.02 58.71 31.27 59.42 31.27 60.34V65.16V65.17Z" fill="white"/>
<path d="M39.27 65.17H37.78V64.36C37.59 64.59 37.4 64.77 37.2 64.9C37 65.02 36.79 65.12 36.56 65.17C36.33 65.22 36.07 65.25 35.78 65.25C35.41 65.25 35.06 65.19 34.74 65.07C34.42 64.95 34.15 64.79 33.94 64.58C33.7 64.34 33.52 64.05 33.4 63.71C33.28 63.37 33.2 63.01 33.16 62.65C33.12 62.29 33.1 61.86 33.1 61.39C33.1 60.92 33.12 60.5 33.16 60.13C33.2 59.76 33.28 59.41 33.4 59.07C33.52 58.73 33.7 58.44 33.94 58.2C34.15 57.99 34.42 57.82 34.74 57.7C35.06 57.58 35.4 57.52 35.77 57.52C36.19 57.52 36.56 57.58 36.88 57.71C37.2 57.84 37.49 58.06 37.76 58.37V54.56H39.28V65.15L39.27 65.17ZM37.75 61.4C37.75 60.89 37.71 60.45 37.63 60.09C37.55 59.73 37.4 59.44 37.17 59.23C36.94 59.02 36.61 58.91 36.19 58.91C35.77 58.91 35.43 59.02 35.19 59.24C34.96 59.46 34.8 59.75 34.73 60.1C34.65 60.46 34.61 60.89 34.61 61.4C34.61 61.91 34.65 62.35 34.73 62.71C34.81 63.07 34.96 63.36 35.19 63.58C35.42 63.8 35.76 63.91 36.19 63.91C36.81 63.91 37.23 63.69 37.43 63.25C37.64 62.81 37.75 62.19 37.75 61.4Z" fill="white"/>
<path d="M51.91 65.17H45.14V54.58H51.91V56.02H46.76V59.11H51.16V60.54H46.76V63.72H51.91V65.17Z" fill="white"/>
<path d="M64.5 65.17H62.98V60.58C62.98 60.01 62.84 59.59 62.56 59.32C62.28 59.05 61.92 58.91 61.46 58.91C61 58.91 60.66 59.05 60.36 59.33C60.06 59.61 59.91 60.01 59.91 60.51V65.18H58.39V60.59C58.39 60.21 58.32 59.9 58.19 59.65C58.06 59.4 57.88 59.21 57.65 59.1C57.42 58.98 57.16 58.92 56.87 58.92C56.42 58.92 56.04 59.06 55.75 59.34C55.46 59.62 55.31 60.04 55.31 60.59V65.18H53.79V57.64H55.28V58.4C55.53 58.13 55.83 57.92 56.17 57.77C56.52 57.62 56.89 57.55 57.28 57.55C58.23 57.55 58.94 57.92 59.42 58.66C60.02 57.92 60.81 57.55 61.79 57.55C62.59 57.55 63.22 57.78 63.69 58.24C64.22 58.75 64.49 59.46 64.49 60.36V65.18L64.5 65.17Z" fill="white"/>
<path d="M72.86 61.39C72.86 61.86 72.84 62.29 72.8 62.65C72.76 63.01 72.68 63.37 72.55 63.72C72.42 64.07 72.24 64.35 72.01 64.59C71.8 64.8 71.54 64.96 71.22 65.08C70.9 65.2 70.55 65.26 70.18 65.26C69.76 65.26 69.39 65.19 69.07 65.06C68.75 64.93 68.46 64.71 68.2 64.4V68.22H66.68V57.63H68.17V58.43C68.45 58.09 68.74 57.86 69.05 57.73C69.36 57.6 69.73 57.53 70.16 57.53C70.54 57.53 70.89 57.59 71.22 57.71C71.55 57.83 71.81 58 72.01 58.2C72.24 58.43 72.42 58.72 72.55 59.06C72.68 59.4 72.76 59.75 72.8 60.12C72.84 60.48 72.86 60.9 72.86 61.38M71.34 61.38C71.34 60.87 71.3 60.43 71.22 60.07C71.14 59.71 70.99 59.42 70.76 59.21C70.53 59 70.2 58.89 69.78 58.89C69.36 58.89 69.02 59 68.79 59.22C68.56 59.44 68.4 59.73 68.33 60.08C68.25 60.44 68.21 60.87 68.21 61.38C68.21 61.89 68.25 62.33 68.33 62.69C68.41 63.05 68.56 63.34 68.79 63.56C69.02 63.78 69.35 63.89 69.78 63.89C70.4 63.89 70.82 63.67 71.03 63.23C71.24 62.79 71.35 62.17 71.35 61.38" fill="white"/>
<path d="M76.33 56.14H74.72V54.53H76.33V56.14ZM76.29 65.17H74.77V57.63H76.29V65.17Z" fill="white"/>
<path d="M83.85 58.26L82.7 59.4C82.53 59.22 82.36 59.09 82.2 59.02C82.04 58.94 81.83 58.9 81.58 58.9C81.31 58.9 81.06 58.97 80.83 59.11C80.6 59.25 80.42 59.45 80.28 59.7C80.14 59.96 80.08 60.25 80.08 60.59V65.17H78.56V57.63H80.05V58.45C80.25 58.17 80.53 57.95 80.89 57.79C81.25 57.63 81.64 57.54 82.06 57.54C82.43 57.54 82.76 57.59 83.04 57.71C83.32 57.82 83.59 58.01 83.86 58.27" fill="white"/>
<path d="M90.94 61.83H86.04C86.04 62.27 86.11 62.65 86.27 62.96C86.42 63.27 86.64 63.52 86.92 63.69C87.2 63.86 87.55 63.95 87.97 63.95C88.39 63.95 88.72 63.89 88.98 63.78C89.24 63.66 89.51 63.46 89.8 63.18L90.77 64.08C90.36 64.49 89.94 64.79 89.52 64.98C89.1 65.17 88.57 65.26 87.94 65.26C87.45 65.26 87.01 65.19 86.59 65.05C86.18 64.91 85.82 64.69 85.51 64.38C85.2 64.07 84.97 63.68 84.8 63.18C84.63 62.69 84.54 62.09 84.54 61.39C84.54 60.58 84.67 59.89 84.94 59.31C85.2 58.73 85.58 58.29 86.06 57.99C86.54 57.68 87.1 57.53 87.75 57.53C88.4 57.53 88.98 57.68 89.47 57.99C89.95 58.29 90.32 58.72 90.58 59.27C90.83 59.82 90.96 60.45 90.96 61.16V61.83H90.94ZM89.44 60.78C89.42 60.39 89.36 60.05 89.24 59.76C89.12 59.47 88.93 59.24 88.67 59.06C88.41 58.89 88.1 58.8 87.75 58.8C87.4 58.8 87.09 58.89 86.83 59.06C86.57 59.23 86.37 59.47 86.24 59.76C86.17 59.91 86.13 60.05 86.11 60.17C86.09 60.29 86.07 60.49 86.05 60.78H89.44Z" fill="white"/>
<path d="M103.93 65.17H102.33V60.54H98.03V65.17H96.41V54.58H98.03V59.1H102.33V54.58H103.93V65.17Z" fill="white"/>
<path d="M112.38 61.83H107.48C107.48 62.27 107.55 62.65 107.71 62.96C107.86 63.27 108.08 63.52 108.36 63.69C108.64 63.86 108.99 63.95 109.41 63.95C109.83 63.95 110.16 63.89 110.42 63.78C110.68 63.66 110.95 63.46 111.24 63.18L112.21 64.08C111.8 64.49 111.38 64.79 110.96 64.98C110.54 65.17 110.01 65.26 109.38 65.26C108.89 65.26 108.45 65.19 108.03 65.05C107.62 64.91 107.26 64.69 106.95 64.38C106.64 64.07 106.41 63.68 106.24 63.18C106.07 62.69 105.98 62.09 105.98 61.39C105.98 60.58 106.11 59.89 106.38 59.31C106.64 58.73 107.02 58.29 107.5 57.99C107.98 57.68 108.54 57.53 109.19 57.53C109.84 57.53 110.42 57.68 110.91 57.99C111.39 58.29 111.76 58.72 112.02 59.27C112.27 59.82 112.4 60.45 112.4 61.16V61.83H112.38ZM110.88 60.78C110.86 60.39 110.8 60.05 110.68 59.76C110.56 59.47 110.37 59.24 110.11 59.06C109.85 58.89 109.54 58.8 109.19 58.8C108.84 58.8 108.53 58.89 108.27 59.06C108.01 59.23 107.81 59.47 107.68 59.76C107.61 59.91 107.57 60.05 107.55 60.17C107.53 60.29 107.51 60.49 107.49 60.78H110.88Z" fill="white"/>
<path d="M119.79 65.17H118.3V64.49C118.02 64.77 117.74 64.96 117.44 65.08C117.14 65.2 116.76 65.26 116.3 65.26C115.84 65.26 115.45 65.2 115.12 65.09C114.79 64.98 114.51 64.81 114.28 64.58C113.88 64.17 113.69 63.63 113.69 62.96C113.69 62.53 113.79 62.15 113.99 61.82C114.19 61.49 114.48 61.24 114.87 61.06C115.26 60.88 115.73 60.79 116.29 60.79H118.29V60.25C118.29 59.77 118.16 59.41 117.9 59.19C117.64 58.96 117.22 58.85 116.64 58.85C116.22 58.85 115.89 58.9 115.66 59.01C115.42 59.12 115.2 59.3 114.99 59.58L114 58.64C114.34 58.23 114.72 57.95 115.13 57.79C115.54 57.63 116.07 57.55 116.71 57.55C118.78 57.55 119.82 58.41 119.82 60.14V65.18L119.79 65.17ZM118.27 62.45V61.84H116.5C116.06 61.84 115.72 61.94 115.49 62.12C115.26 62.31 115.15 62.58 115.15 62.93C115.15 63.64 115.61 64 116.53 64C116.85 64 117.13 63.97 117.34 63.92C117.56 63.86 117.76 63.75 117.94 63.57C118.16 63.35 118.27 62.98 118.27 62.45Z" fill="white"/>
<path d="M124.93 65.17H123.99C123.31 65.17 122.79 64.97 122.45 64.58C122.1 64.18 121.93 63.69 121.93 63.09V54.58H123.45V63C123.45 63.3 123.51 63.52 123.63 63.66C123.75 63.8 123.96 63.87 124.26 63.87H124.93V65.16V65.17Z" fill="white"/>
<path d="M129.61 65.17H128.7C128.25 65.17 127.88 65.07 127.56 64.88C127.25 64.69 127.01 64.43 126.86 64.11C126.71 63.79 126.63 63.44 126.63 63.07V58.92H125.77V57.76H126.63V55.47H128.15V57.76H129.61V58.92H128.15V62.99C128.15 63.58 128.43 63.87 128.98 63.87H129.6V65.16L129.61 65.17Z" fill="white"/>
<path d="M137.48 65.17H135.96V60.55C135.96 60 135.82 59.59 135.54 59.31C135.26 59.04 134.89 58.9 134.44 58.9C133.99 58.9 133.62 59.04 133.33 59.32C133.05 59.6 132.9 60.01 132.9 60.55V65.17H131.38V54.58H132.9V58.39C133.41 57.82 134.06 57.54 134.85 57.54C135.39 57.54 135.86 57.65 136.26 57.89C136.66 58.12 136.96 58.44 137.17 58.86C137.38 59.28 137.48 59.76 137.48 60.31V65.18V65.17Z" fill="white"/>
<path d="M150.68 57.79C150.68 58.4 150.54 58.96 150.27 59.44C149.99 59.93 149.6 60.31 149.08 60.59C148.56 60.87 147.97 61.01 147.29 61.01H144.89V65.17H143.27V54.58H147.29C147.79 54.58 148.25 54.66 148.69 54.82C149.12 54.98 149.49 55.21 149.78 55.49C150.08 55.78 150.3 56.11 150.46 56.5C150.62 56.89 150.69 57.31 150.69 57.78M149.09 57.78C149.09 57.23 148.92 56.8 148.58 56.48C148.24 56.16 147.79 56.01 147.22 56.01H144.9V59.53H147.22C147.79 59.53 148.25 59.37 148.59 59.06C148.93 58.75 149.1 58.32 149.1 57.77" fill="white"/>
<path d="M155.26 65.17H154.32C153.64 65.17 153.12 64.97 152.78 64.58C152.43 64.18 152.26 63.69 152.26 63.09V54.58H153.78V63C153.78 63.3 153.84 63.52 153.96 63.66C154.08 63.8 154.29 63.87 154.59 63.87H155.26V65.16V65.17Z" fill="white"/>
<path d="M162.34 65.17H160.85V64.49C160.57 64.77 160.29 64.96 159.99 65.08C159.69 65.2 159.31 65.26 158.85 65.26C158.39 65.26 158 65.2 157.67 65.09C157.34 64.98 157.06 64.81 156.83 64.58C156.43 64.17 156.24 63.63 156.24 62.96C156.24 62.53 156.34 62.15 156.54 61.82C156.74 61.49 157.03 61.24 157.42 61.06C157.81 60.88 158.28 60.79 158.84 60.79H160.84V60.25C160.84 59.77 160.71 59.41 160.45 59.19C160.19 58.96 159.77 58.85 159.19 58.85C158.77 58.85 158.44 58.9 158.21 59.01C157.97 59.12 157.75 59.3 157.54 59.58L156.55 58.64C156.89 58.23 157.27 57.95 157.68 57.79C158.09 57.63 158.62 57.55 159.26 57.55C161.33 57.55 162.37 58.41 162.37 60.14V65.18L162.34 65.17ZM160.82 62.45V61.84H159.05C158.61 61.84 158.27 61.94 158.04 62.12C157.81 62.31 157.69 62.58 157.69 62.93C157.69 63.64 158.15 64 159.07 64C159.39 64 159.67 63.97 159.88 63.92C160.1 63.86 160.3 63.75 160.48 63.57C160.7 63.35 160.81 62.98 160.81 62.45" fill="white"/>
<path d="M170.63 65.17H169.11V60.58C169.11 60.2 169.04 59.89 168.91 59.64C168.78 59.39 168.6 59.2 168.37 59.09C168.14 58.97 167.88 58.91 167.59 58.91C167.14 58.91 166.76 59.05 166.47 59.33C166.18 59.61 166.03 60.03 166.03 60.58V65.17H164.51V57.63H166V58.39C166.25 58.11 166.55 57.9 166.91 57.75C167.26 57.6 167.63 57.53 168.01 57.53C168.78 57.53 169.4 57.76 169.87 58.22C170.38 58.71 170.63 59.42 170.63 60.34V65.16V65.17Z" fill="white"/>
<path d="M97.05 4.16999C90.65 -1.67001 80.66 -1.08001 74.54 5.03999L73.85 5.72999L72.81 4.68999C69.79 1.66999 65.76 0.00999451 61.46 0.00999451C57.16 0.00999451 53.13 1.66999 50.11 4.68999C47.09 7.70999 45.43 11.74 45.43 16.04C45.43 20.34 47.09 24.37 50.11 27.39L51.15 28.43L53.86 31.14L71.14 48.42C72.64 49.92 75.06 49.92 76.56 48.42L93.84 31.14L96.55 28.43L97.59 27.39C100.61 24.37 102.27 20.34 102.27 16.04C102.27 11.49 100.41 7.23999 97.05 4.16999Z" fill="#EF4136"/>
<path d="M84.31 9.21C84.24 9.21 84.16 9.21 84.09 9.19C83.78 9.15 83.47 9.12 83.15 9.11C82.32 9.09 81.66 8.41 81.67 7.57C81.68 6.75 82.36 6.09 83.18 6.09C83.18 6.09 83.2 6.09 83.21 6.09C83.65 6.09 84.09 6.14 84.53 6.2C85.36 6.32 85.93 7.09 85.8 7.91C85.69 8.66 85.05 9.2 84.31 9.2" fill="white"/>
<path d="M94 19.54C93.23 19.54 92.58 18.96 92.5 18.18C92.44 17.59 92.33 17 92.17 16.43C92.01 15.86 91.81 15.31 91.56 14.77C91.31 14.24 91.02 13.73 90.69 13.24C90.36 12.76 89.98 12.3 89.57 11.88C89.22 11.52 88.84 11.19 88.45 10.9C87.78 10.4 87.65 9.45999 88.15 8.78999C88.65 8.11999 89.59 7.98999 90.26 8.48999C90.77 8.86999 91.26 9.29999 91.72 9.76999C92.25 10.31 92.74 10.91 93.17 11.53C93.6 12.15 93.98 12.81 94.3 13.5C94.62 14.19 94.88 14.9 95.08 15.63C95.28 16.36 95.42 17.12 95.5 17.88C95.58 18.71 94.98 19.45 94.15 19.53C94.1 19.53 94.05 19.53 94 19.53" fill="white"/>
</g>
<defs>
<clipPath id="clip0_2_251">
<rect width="174.84" height="68.22" fill="white"/>
</clipPath>
</defs>
</svg>
